<svg xmlns="http://www.w3.org/2000/svg" viewBox="0 0 100 100" role="img" aria-label="Kaztop"><g fill="none" stroke="#4c7ab1" stroke-width="2.4" stroke-linejoin="round" stroke-linecap="round"><line x1="50.00" y1="4.00" x2="10.16" y2="27.00"/><line x1="10.16" y1="27.00" x2="10.16" y2="73.00"/><line x1="10.16" y1="73.00" x2="50.00" y2="96.00"/><line x1="50.00" y1="96.00" x2="89.84" y2="73.00"/><line x1="89.84" y1="73.00" x2="89.84" y2="27.00"/><line x1="89.84" y1="27.00" x2="50.00" y2="4.00"/><line x1="67.02" y1="20.52" x2="32.98" y2="20.52"/><line x1="32.98" y1="20.52" x2="15.96" y2="50.00"/><line x1="15.96" y1="50.00" x2="32.98" y2="79.48"/><line x1="32.98" y1="79.48" x2="67.02" y2="79.48"/><line x1="67.02" y1="79.48" x2="84.04" y2="50.00"/><line x1="84.04" y1="50.00" x2="67.02" y2="20.52"/><line x1="50.00" y1="4.00" x2="32.98" y2="20.52"/><line x1="50.00" y1="4.00" x2="67.02" y2="20.52"/><line x1="10.16" y1="27.00" x2="15.96" y2="50.00"/><line x1="10.16" y1="27.00" x2="32.98" y2="20.52"/><line x1="10.16" y1="73.00" x2="32.98" y2="79.48"/><line x1="10.16" y1="73.00" x2="15.96" y2="50.00"/><line x1="50.00" y1="96.00" x2="32.98" y2="79.48"/><line x1="50.00" y1="96.00" x2="67.02" y2="79.48"/><line x1="89.84" y1="73.00" x2="67.02" y2="79.48"/><line x1="89.84" y1="73.00" x2="84.04" y2="50.00"/><line x1="89.84" y1="27.00" x2="67.02" y2="20.52"/><line x1="89.84" y1="27.00" x2="84.04" y2="50.00"/></g></svg>