<svg xmlns="http://www.w3.org/2000/svg" viewBox="0 0 100 124" role="img" aria-label="Kaztop"><g fill="none" stroke="#4c7ab1" stroke-width="2.2" stroke-linejoin="round" stroke-linecap="round"><line x1="50.00" y1="4.00" x2="13.63" y2="25.00"/><line x1="13.63" y1="25.00" x2="13.63" y2="67.00"/><line x1="13.63" y1="67.00" x2="50.00" y2="88.00"/><line x1="50.00" y1="88.00" x2="86.37" y2="67.00"/><line x1="86.37" y1="67.00" x2="86.37" y2="25.00"/><line x1="86.37" y1="25.00" x2="50.00" y2="4.00"/><line x1="65.54" y1="19.08" x2="34.46" y2="19.08"/><line x1="34.46" y1="19.08" x2="18.92" y2="46.00"/><line x1="18.92" y1="46.00" x2="34.46" y2="72.92"/><line x1="34.46" y1="72.92" x2="65.54" y2="72.92"/><line x1="65.54" y1="72.92" x2="81.08" y2="46.00"/><line x1="81.08" y1="46.00" x2="65.54" y2="19.08"/><line x1="50.00" y1="4.00" x2="34.46" y2="19.08"/><line x1="50.00" y1="4.00" x2="65.54" y2="19.08"/><line x1="13.63" y1="25.00" x2="18.92" y2="46.00"/><line x1="13.63" y1="25.00" x2="34.46" y2="19.08"/><line x1="13.63" y1="67.00" x2="34.46" y2="72.92"/><line x1="13.63" y1="67.00" x2="18.92" y2="46.00"/><line x1="50.00" y1="88.00" x2="34.46" y2="72.92"/><line x1="50.00" y1="88.00" x2="65.54" y2="72.92"/><line x1="86.37" y1="67.00" x2="65.54" y2="72.92"/><line x1="86.37" y1="67.00" x2="81.08" y2="46.00"/><line x1="86.37" y1="25.00" x2="65.54" y2="19.08"/><line x1="86.37" y1="25.00" x2="81.08" y2="46.00"/></g><text x="50" y="116" text-anchor="middle" font-family="Georgia,serif" font-weight="700" font-size="22" letter-spacing="1" fill="#0e1c21">KAZTOP</text></svg>