<svg class="geo-svg" viewBox="0 0 1000 564" style="--n:17" role="img" aria-label="Карта Казахстана: география работ Kaztop" xmlns="http://www.w3.org/2000/svg" preserveAspectRatio="xMidYMid meet">
  <path class="geo-contour" d="M593.1,483.3 L584.6,490.7 L580.7,489.2 L573.2,498.2 L551.2,512.0 L537.8,531.2 L537.6,540.1 L533.9,540.2 L525.3,533.6 L526.8,525.9 L522.7,520.0 L494.0,520.6 L489.1,492.1 L477.6,491.8 L479.8,457.3 L472.8,461.3 L465.6,446.1 L451.8,432.0 L441.0,437.7 L412.1,435.0 L383.7,439.8 L364.3,416.2 L360.7,408.3 L303.3,367.7 L243.0,387.3 L243.1,515.6 L230.4,516.5 L216.8,493.2 L199.6,480.2 L174.7,486.8 L161.6,499.6 L160.9,488.4 L164.5,477.0 L164.0,465.4 L147.7,461.5 L141.1,451.5 L133.6,450.9 L133.7,440.1 L122.7,415.3 L111.0,410.7 L109.2,405.9 L112.9,400.2 L139.4,403.5 L133.9,400.4 L126.9,389.8 L136.4,374.6 L160.0,373.0 L178.1,375.5 L168.1,367.1 L176.6,345.5 L174.9,335.5 L177.4,328.8 L175.1,322.2 L171.5,318.8 L161.4,317.5 L153.3,323.2 L130.8,313.4 L113.1,321.4 L100.6,331.3 L88.0,334.0 L88.4,337.8 L86.6,336.9 L85.3,340.4 L70.8,332.4 L68.6,326.5 L77.2,327.5 L79.0,325.1 L60.4,292.4 L44.4,289.1 L40.0,291.3 L35.3,284.1 L34.7,274.1 L25.2,267.8 L24.0,262.2 L26.2,254.1 L33.9,242.1 L28.5,234.5 L29.0,229.8 L33.0,217.5 L38.9,212.3 L40.8,202.8 L44.9,198.3 L49.6,199.1 L64.4,217.3 L74.3,214.9 L76.2,211.9 L71.1,190.9 L75.4,191.3 L87.5,182.6 L91.5,174.5 L110.5,166.2 L121.9,151.9 L130.5,154.8 L134.7,160.8 L140.9,160.5 L155.2,152.6 L163.4,160.6 L181.3,160.6 L200.1,176.0 L209.8,193.6 L212.0,189.3 L209.6,179.3 L211.8,177.0 L236.2,192.0 L255.1,176.7 L267.2,175.1 L277.3,181.3 L282.3,180.0 L286.6,174.2 L298.7,175.2 L311.0,188.1 L324.3,190.7 L326.0,195.1 L332.7,192.0 L338.5,182.6 L347.0,188.6 L359.1,188.0 L369.6,182.3 L374.2,169.4 L373.5,166.1 L348.0,154.7 L346.2,150.4 L337.8,144.8 L360.4,130.7 L355.2,118.8 L361.6,108.5 L385.8,107.3 L375.9,99.5 L365.2,97.5 L365.9,91.9 L373.0,89.2 L360.0,85.8 L365.9,71.9 L382.2,74.4 L441.4,59.1 L456.1,60.7 L465.2,50.8 L527.8,38.4 L529.9,35.8 L529.0,32.0 L547.0,24.0 L559.1,25.1 L575.2,31.9 L588.2,27.0 L598.7,51.6 L596.5,65.1 L617.8,65.4 L622.1,61.2 L628.2,74.6 L631.4,72.7 L632.3,67.9 L646.5,74.0 L657.7,71.1 L657.0,75.0 L648.2,82.8 L650.6,91.9 L661.2,85.9 L672.7,90.5 L675.0,84.9 L693.0,76.3 L698.1,69.4 L730.8,57.1 L726.5,67.5 L721.1,67.3 L722.6,71.8 L754.7,98.1 L792.4,160.2 L804.4,185.3 L814.7,179.3 L815.2,171.0 L822.0,167.2 L831.1,170.7 L829.8,178.5 L837.2,178.9 L839.0,186.5 L863.1,186.9 L869.3,181.1 L883.3,177.6 L897.0,185.3 L905.9,204.0 L921.4,210.2 L921.7,216.1 L927.1,225.8 L949.3,229.9 L960.9,220.1 L962.2,223.0 L959.7,227.6 L976.0,244.3 L964.0,245.6 L961.9,257.9 L957.9,263.8 L939.2,268.8 L934.0,285.2 L937.0,308.3 L933.0,315.0 L916.7,323.1 L913.9,318.2 L898.7,318.2 L875.6,310.7 L858.9,366.3 L865.8,372.3 L863.7,382.7 L857.8,379.4 L850.2,381.5 L844.3,374.9 L806.2,386.9 L801.8,391.2 L816.0,397.1 L813.1,402.8 L813.1,418.6 L823.1,451.3 L813.9,455.5 L817.4,461.4 L809.5,466.3 L809.7,485.3 L802.9,477.5 L791.4,475.0 L784.4,464.8 L734.3,457.9 L707.5,459.2 L702.7,463.5 L696.4,462.7 L669.4,448.6 L654.1,456.9 L651.0,471.2 L652.6,477.6 L612.1,463.2 L600.3,466.3 L591.8,480.1 L593.1,483.3 Z"/>
  <g class="geo-arcs">
    <path class="geo-arc" style="--len:482;--i:0" d="M605.3,171.8 Q370.8,76.6 135.3,169.4"/>
    <path class="geo-arc" style="--len:202;--i:1" d="M605.3,171.8 Q527.9,99.3 421.8,100.2"/>
    <path class="geo-arc" style="--len:91;--i:2" d="M605.3,171.8 Q595.9,125.1 556.9,97.7"/>
    <path class="geo-arc" style="--len:144;--i:3" d="M605.3,171.8 Q604.1,96.1 551.1,42.2"/>
    <path class="geo-arc" style="--len:138;--i:4" d="M605.3,171.8 Q661.5,126.4 733.5,132.3"/>
    <path class="geo-arc geo-arc--real" style="--len:95;--i:5" d="M605.3,171.8 Q646.4,144.0 695.3,152.2"/>
    <path class="geo-arc" style="--len:212;--i:6" d="M605.3,171.8 Q713.0,144.0 810.1,198.0"/>
    <path class="geo-arc" style="--len:271;--i:7" d="M605.3,171.8 Q744.0,140.9 865.8,214.1"/>
    <path class="geo-arc" style="--len:63;--i:8" d="M605.3,171.8 Q633.9,188.0 643.4,219.3"/>
    <path class="geo-arc geo-arc--real" style="--len:312;--i:9" d="M605.3,171.8 Q724.0,284.9 732.1,448.6"/>
    <path class="geo-arc" style="--len:296;--i:10" d="M605.3,171.8 Q546.6,315.8 603.4,460.5"/>
    <path class="geo-arc" style="--len:320;--i:11" d="M605.3,171.8 Q521.5,317.5 561.4,480.8"/>
    <path class="geo-arc" style="--len:292;--i:12" d="M605.3,171.8 Q512.7,294.1 530.0,446.5"/>
    <path class="geo-arc" style="--len:268;--i:13" d="M605.3,171.8 Q491.5,254.2 466.0,392.3"/>
    <path class="geo-arc" style="--len:557;--i:14" d="M605.3,171.8 Q315.4,208.1 130.4,434.3"/>
    <path class="geo-arc" style="--len:491;--i:15" d="M605.3,171.8 Q348.4,151.3 148.2,313.7"/>
    <path class="geo-arc" style="--len:345;--i:16" d="M605.3,171.8 Q432.0,120.3 270.9,202.6"/>
  </g>
  <g class="geo-cities">
    <circle class="geo-hub-pulse" cx="605.3" cy="171.8" r="9"/>
    <circle class="geo-city geo-city--hub" cx="605.3" cy="171.8" r="9"><title>Астана</title></circle>
    <circle class="geo-city geo-city--real" cx="732.1" cy="448.6" r="5.5"><title>Алматы</title></circle>
    <circle class="geo-city geo-city--real" cx="695.3" cy="152.2" r="5.5"><title>Экибастуз</title></circle>
    <circle class="geo-city geo-city--major" cx="561.4" cy="480.8" r="4"><title>Шымкент</title></circle>
    <circle class="geo-city geo-city--major" cx="643.4" cy="219.3" r="4"><title>Караганда</title></circle>
    <circle class="geo-city geo-city--major" cx="270.9" cy="202.6" r="4"><title>Актобе</title></circle>
    <circle class="geo-city geo-city--major" cx="148.2" cy="313.7" r="4"><title>Атырау</title></circle>
    <circle class="geo-city geo-city--major" cx="865.8" cy="214.1" r="4"><title>Усть-Каменогорск</title></circle>
    <circle class="geo-city geo-city--major" cx="421.8" cy="100.2" r="4"><title>Костанай</title></circle>
    <circle class="geo-city geo-city--major" cx="733.5" cy="132.3" r="4"><title>Павлодар</title></circle>
    <circle class="geo-city geo-city--major" cx="466.0" cy="392.3" r="4"><title>Кызылорда</title></circle>
    <circle class="geo-city geo-city--major" cx="603.4" cy="460.5" r="4"><title>Тараз</title></circle>
    <circle class="geo-city geo-city--major" cx="810.1" cy="198.0" r="4"><title>Семей</title></circle>
    <circle class="geo-city geo-city--major" cx="130.4" cy="434.3" r="4"><title>Актау</title></circle>
    <circle class="geo-city geo-city--major" cx="135.3" cy="169.4" r="4"><title>Уральск</title></circle>
    <circle class="geo-city geo-city--major" cx="551.1" cy="42.2" r="4"><title>Петропавловск</title></circle>
    <circle class="geo-city geo-city--major" cx="530.0" cy="446.5" r="4"><title>Туркестан</title></circle>
    <circle class="geo-city geo-city--major" cx="556.9" cy="97.7" r="4"><title>Кокшетау</title></circle>
  </g>
</svg>
